<?xml version="1.0" encoding="UTF-8"?>
<!DOCTYPE svg PUBLIC "-//W3C//DTD SVG 1.1//EN" "http://www.w3.org/Graphics/SVG/1.1/DTD/svg11.dtd">
<!-- Creator: CorelDRAW X8 -->
<svg xmlns="http://www.w3.org/2000/svg" xml:space="preserve" width="500px" height="302px" version="1.1" style="shape-rendering:geometricPrecision; text-rendering:geometricPrecision; image-rendering:optimizeQuality; fill-rule:evenodd; clip-rule:evenodd"
viewBox="0 0 500 302"
 xmlns:xlink="http://www.w3.org/1999/xlink">
 <defs>
  <style type="text/css">
   <![CDATA[
    .fil1 {fill:#97D0EE;fill-rule:nonzero}
    .fil0 {fill:#31BEEF;fill-rule:nonzero}
   ]]>
  </style>
 </defs>
 <g id="Layer_x0020_1">
  <metadata id="CorelCorpID_0Corel-Layer"/>
  <path class="fil0" d="M490 253l-79 0c0,13 4,22 10,29 6,8 14,11 25,11 14,0 25,-8 31,-24l11 2c-4,11 -9,19 -16,24 -8,5 -17,7 -27,7 -15,0 -26,-4 -34,-13 -8,-9 -12,-22 -12,-37 0,-16 4,-28 12,-37 8,-9 20,-14 34,-14 30,0 44,18 45,52zm-13 -9c-2,-22 -13,-34 -32,-34 -9,0 -17,3 -23,9 -6,6 -9,14 -10,25l65 0z"/>
  <path class="fil0" d="M95 252c0,15 -4,27 -12,37 -9,9 -21,13 -36,13 -10,0 -18,-2 -25,-6 -7,-4 -13,-10 -17,-17 -4,-8 -6,-17 -6,-27 0,-15 5,-28 13,-37 9,-9 20,-14 35,-14 10,0 19,2 26,6 7,5 13,10 16,18 4,8 6,16 6,27zm-10 0c0,-13 -3,-23 -10,-31 -7,-8 -16,-12 -28,-12 -12,0 -21,4 -27,12 -7,8 -10,18 -10,31 0,12 3,23 10,31 6,8 16,12 27,12 8,0 15,-2 20,-5 6,-4 10,-9 13,-15 3,-7 5,-15 5,-23z"/>
  <path class="fil0" d="M296 88c35,0 64,34 64,34 0,0 -29,35 -64,35 -35,0 -63,-35 -63,-35 0,0 28,-34 63,-34z"/>
  <path class="fil1" d="M396 57c0,32 -31,57 -31,57 0,0 -31,-25 -31,-57 0,-31 31,-56 31,-56 0,0 31,25 31,56z"/>
  <polygon class="fil0" points="330,300 318,300 318,167 330,167 "/>
  <polygon class="fil0" points="286,300 274,300 274,203 286,203 "/>
  <polygon class="fil0" points="286,184 274,184 274,167 286,167 "/>
  <polygon class="fil0" points="256,203 215,300 204,300 163,203 176,203 209,286 243,203 "/>
  <path class="fil0" d="M163 207l-5 10c-6,-3 -11,-4 -13,-4 -3,0 -5,1 -7,1 -2,1 -4,2 -6,4 -1,1 -3,3 -4,5 -1,2 -2,5 -3,7 -1,3 -1,6 -2,11 0,5 -1,10 -1,14l0 45 -12 0 0 -97 11 0 0 20c5,-15 13,-22 24,-22 5,0 11,2 18,6z"/>
  <path class="fil0" d="M358 241c0,-29 -1,-58 0,-87 1,-36 38,-67 78,-67 35,0 63,34 63,34 0,0 -28,35 -63,35 -19,0 -33,-14 -47,-19 -10,-1 -19,16 -19,43l0 120 -12 0 0 -59z"/>
 </g>
</svg>
